<svg height="512" viewBox="0 0 128 128" width="512" xmlns="http://www.w3.org/2000/svg"><g><g><circle cx="64" cy="63.997" fill="#0d91bd" r="62.25"/><circle cx="64" cy="63.997" fill="#ebe1dc" r="54.25"/><g fill="#0d91bd"><path d="m64 18.005a1.751 1.751 0 0 0 -1.75 1.75v9.625a1.75 1.75 0 0 0 3.5 0v-9.625a1.751 1.751 0 0 0 -1.75-1.75z"/><path d="m88.478 41.269a1.743 1.743 0 0 0 1.237-.513l6.806-6.8a1.75 1.75 0 1 0 -2.475-2.475l-6.805 6.806a1.75 1.75 0 0 0 1.237 2.987z"/><path d="m38.285 87.238-6.806 6.805a1.75 1.75 0 1 0 2.475 2.475l6.805-6.806a1.749 1.749 0 1 0 -2.474-2.474z"/><path d="m108.242 62.247h-9.625a1.75 1.75 0 0 0 0 3.5h9.625a1.75 1.75 0 0 0 0-3.5z"/><path d="m29.383 62.247h-9.625a1.75 1.75 0 1 0 0 3.5h9.625a1.75 1.75 0 0 0 0-3.5z"/><path d="m89.715 87.238a1.749 1.749 0 0 0 -2.474 2.474l6.805 6.806a1.75 1.75 0 0 0 2.475-2.475z"/><path d="m33.954 31.476a1.75 1.75 0 1 0 -2.475 2.475l6.806 6.805a1.749 1.749 0 0 0 2.474-2.474z"/></g><path d="m83.191 103.856-7.63-7.63a34.2 34.2 0 0 1 -23.122 0l-7.63 7.63a44.205 44.205 0 0 0 38.382 0z" fill="#09607d"/><path d="m68.459 65.234-4.459-23.546-4.459 23.546a8.719 8.719 0 1 0 8.918 0z" fill="#ffb655"/></g><g><path d="m64 0a64 64 0 1 0 64 64 64.073 64.073 0 0 0 -64-64zm0 124.5a60.5 60.5 0 1 1 60.5-60.5 60.568 60.568 0 0 1 -60.5 60.5z"/><path d="m64 8a56.036 56.036 0 0 0 -42.081 19.085 1.75 1.75 0 1 0 2.63 2.31 52.473 52.473 0 1 1 -13.049 34.605 1.75 1.75 0 0 0 -3.5 0 56 56 0 1 0 56-56z"/><path d="m11.617 49.756a1.734 1.734 0 0 0 .514.078 1.752 1.752 0 0 0 1.669-1.234 52.2 52.2 0 0 1 2.342-6.188 1.751 1.751 0 1 0 -3.189-1.445 55.745 55.745 0 0 0 -2.5 6.6 1.75 1.75 0 0 0 1.164 2.189z"/><path d="m64 31.13a1.751 1.751 0 0 0 1.75-1.75v-9.625a1.75 1.75 0 1 0 -3.5 0v9.625a1.751 1.751 0 0 0 1.75 1.75z"/><path d="m94.046 31.476-6.805 6.806a1.749 1.749 0 1 0 2.474 2.474l6.806-6.8a1.75 1.75 0 1 0 -2.475-2.475z"/><path d="m38.285 87.238-6.806 6.805a1.75 1.75 0 1 0 2.475 2.475l6.805-6.806a1.749 1.749 0 1 0 -2.474-2.474z"/><path d="m98.617 65.747h9.625a1.75 1.75 0 0 0 0-3.5h-9.625a1.75 1.75 0 0 0 0 3.5z"/><path d="m19.758 65.747h9.625a1.75 1.75 0 0 0 0-3.5h-9.625a1.75 1.75 0 1 0 0 3.5z"/><path d="m87.241 89.712 6.805 6.806a1.75 1.75 0 0 0 2.475-2.475l-6.806-6.805a1.749 1.749 0 0 0 -2.474 2.474z"/><path d="m40.759 38.282-6.8-6.806a1.75 1.75 0 1 0 -2.475 2.475l6.806 6.805a1.749 1.749 0 0 0 2.474-2.474z"/><path d="m51.2 94.989-7.63 7.63a1.75 1.75 0 0 0 .476 2.813 45.476 45.476 0 0 0 19.954 4.557 1.75 1.75 0 0 0 0-3.5 41.992 41.992 0 0 1 -16.158-3.189l5.063-5.063a36.11 36.11 0 0 0 22.19 0l6.858 6.858a1.75 1.75 0 0 0 2.475-2.474l-7.63-7.63a1.744 1.744 0 0 0 -1.829-.409 32.6 32.6 0 0 1 -21.938 0 1.748 1.748 0 0 0 -1.831.407z"/><path d="m53.531 72.716a10.469 10.469 0 1 0 16.509-8.539l-4.321-22.815a1.75 1.75 0 0 0 -3.438 0l-4.321 22.815a10.522 10.522 0 0 0 -4.429 8.539zm6.907-5.98a1.749 1.749 0 0 0 .822-1.177l2.74-14.466 2.74 14.466a1.748 1.748 0 0 0 .821 1.177 6.969 6.969 0 1 1 -7.123 0z"/></g></g></svg>