<svg id="Layer_2" height="512" viewBox="0 0 128 128" width="512" xmlns="http://www.w3.org/2000/svg" data-name="Layer 2"><path d="m12.667 30.171h102.666l10.917 8.73v40.032l-10.917 8.73h-102.666z" fill="#5b6ea2"/><path d="m5.75 39.039h6.917a0 0 0 0 1 0 0v39.756a0 0 0 0 1 0 0h-6.917a4 4 0 0 1 -4-4v-31.756a4 4 0 0 1 4-4z" fill="#86dbd5"/><path d="m25.5 30.171h78.75v57.492h-78.75z" fill="#f7d56b"/><g fill="#eef0f1"><path d="m34.75 41.911h60.25a1.75 1.75 0 0 0 0-3.5h-60.25a1.75 1.75 0 0 0 0 3.5z"/><path d="m95 47.789h-60.25a1.75 1.75 0 0 0 0 3.5h60.25a1.75 1.75 0 0 0 0-3.5z"/><path d="m95 57.167h-60.25a1.75 1.75 0 0 0 0 3.5h60.25a1.75 1.75 0 0 0 0-3.5z"/><path d="m95 66.545h-60.25a1.75 1.75 0 0 0 0 3.5h60.25a1.75 1.75 0 0 0 0-3.5z"/><path d="m95 75.923h-60.25a1.75 1.75 0 0 0 0 3.5h60.25a1.75 1.75 0 0 0 0-3.5z"/><path d="m25.5 87.663h12.167v15.921h-12.167z"/><path d="m92.083 87.663h12.167v15.921h-12.167z"/></g><rect fill="#86dbd5" height="11" rx="5.5" width="97" x="15.5" y="103.583"/><path d="m54.937 13.417h18.125a7 7 0 0 1 7 7v9.754a0 0 0 0 1 0 0h-32.125a0 0 0 0 1 0 0v-9.754a7 7 0 0 1 7-7z" fill="#eef0f1"/><path d="m70.437 23.544h-12.875a1.75 1.75 0 0 1 0-3.5h12.875a1.75 1.75 0 0 1 0 3.5z" fill="#d6d8d8"/><path d="m126.25 37.15a1.75 1.75 0 0 0 -1.75 1.75v39.192l-9.78 7.821h-8.72v-53.992h9.333a1.75 1.75 0 0 0 0-3.5h-33.521v-8a8.759 8.759 0 0 0 -8.75-8.75h-18.125a8.76 8.76 0 0 0 -8.75 8.75v8h-33.52a1.749 1.749 0 0 0 -1.75 1.75v7.118h-5.167a5.757 5.757 0 0 0 -5.75 5.75v31.761a5.757 5.757 0 0 0 5.75 5.75h5.167v7.118a1.749 1.749 0 0 0 1.75 1.75h11.083v12.42h-2.75a7.25 7.25 0 0 0 0 14.5h12a1.75 1.75 0 0 0 0-3.5h-12a3.75 3.75 0 0 1 0-7.5h86a3.75 3.75 0 0 1 0 7.5h-43a1.75 1.75 0 0 0 0 3.5h43a7.25 7.25 0 0 0 0-14.5h-1v-12.425h9.333a1.751 1.751 0 0 0 1.093-.383l10.917-8.73a1.754 1.754 0 0 0 .657-1.367v-40.033a1.75 1.75 0 0 0 -1.75-1.75zm-76.563-16.733a5.256 5.256 0 0 1 5.25-5.25h18.125a5.256 5.256 0 0 1 5.25 5.25v8h-28.625zm-1.75 11.5h54.563v53.996h-75.25v-53.992zm42.4 57.492v12.42h-50.92v-12.416zm-84.587-12.364a2.253 2.253 0 0 1 -2.25-2.245v-31.761a2.253 2.253 0 0 1 2.25-2.25h5.167v36.256zm8.667 1.75v-46.874h9.333v53.992h-9.333zm12.833 23.038v-12.42h8.667v12.42zm66.583 0v-12.42h8.667v12.42z"/><path d="m34.75 41.911h60.25a1.75 1.75 0 0 0 0-3.5h-60.25a1.75 1.75 0 0 0 0 3.5z"/><path d="m34.75 51.289h60.25a1.75 1.75 0 0 0 0-3.5h-60.25a1.75 1.75 0 0 0 0 3.5z"/><path d="m34.75 60.667h60.25a1.75 1.75 0 0 0 0-3.5h-60.25a1.75 1.75 0 0 0 0 3.5z"/><path d="m34.75 70.045h60.25a1.75 1.75 0 0 0 0-3.5h-60.25a1.75 1.75 0 0 0 0 3.5z"/><path d="m34.75 79.423h60.25a1.75 1.75 0 0 0 0-3.5h-60.25a1.75 1.75 0 0 0 0 3.5z"/><path d="m52.833 112.833h-8.666a1.75 1.75 0 0 0 0 3.5h8.666a1.75 1.75 0 0 0 0-3.5z"/><path d="m70.437 20.044h-12.875a1.75 1.75 0 0 0 0 3.5h12.875a1.75 1.75 0 0 0 0-3.5z"/></svg>