<svg id="Capa_1" enable-background="new 0 0 512 512" height="512" viewBox="0 0 512 512" width="512" xmlns="http://www.w3.org/2000/svg"><path d="m461.51 406.179h41.09c1.05 0 1.9-.851 1.9-1.9v-121.058c0-1.05-.851-1.9-1.9-1.9h-41.09z" fill="#c3bec6"/><path d="m50.49 406.179h-41.09c-1.05 0-1.9-.851-1.9-1.9v-121.058c0-1.05.851-1.9 1.9-1.9h41.09z" fill="#d3ced5"/><path d="m451.999 422.295h-30.721c-5.253 0-9.511-4.258-9.511-9.511v-138.068c0-5.253 4.258-9.511 9.511-9.511h30.721c5.253 0 9.511 4.258 9.511 9.511v138.068c0 5.253-4.258 9.511-9.511 9.511z" fill="#efecef"/><path d="m167.454 223.6v-21.621c0-5.557 4.505-10.062 10.062-10.062h156.968c5.557 0 10.062 4.505 10.062 10.062v21.621c0 5.557-4.505 10.062-10.062 10.062h-156.968c-5.557 0-10.062-4.505-10.062-10.062z" fill="#efecef"/><path d="m334.484 191.917h-29.938v11.683c0 5.557-4.505 10.062-10.062 10.062h-127.03v9.938c0 5.557 4.505 10.062 10.062 10.062h156.968c5.557 0 10.062-4.505 10.062-10.062v-21.621c0-5.557-4.505-10.062-10.062-10.062z" fill="#e2dfe2"/><path d="m60.001 422.295h30.722c5.253 0 9.511-4.258 9.511-9.511v-138.068c0-5.253-4.258-9.511-9.511-9.511h-30.722c-5.253 0-9.511 4.258-9.511 9.511v138.068c0 5.253 4.258 9.511 9.511 9.511z" fill="#efecef"/><path d="m315.931 191.917h-119.862v-21.46c0-3.372 2.733-6.105 6.105-6.105h107.652c3.371 0 6.105 2.733 6.105 6.105z" fill="#d3ced5"/><path d="m216.069 78.136h79.861v21.68c0 3.372-2.733 6.105-6.105 6.105h-67.652c-3.372 0-6.105-2.733-6.105-6.105v-21.68z" fill="#dd636e"/><path d="m238.807 105.921h34.386v58.432h-34.386z" fill="#958b95"/><path d="m357.955 39.334h-203.91c-10.715 0-19.401 8.686-19.401 19.401s8.686 19.401 19.401 19.401h203.911c10.715 0 19.401-8.686 19.401-19.401s-8.687-19.401-19.402-19.401z" fill="#e4989d"/><path d="m381.466 281.321c-7.593 0-14.609-3.847-18.887-10.12-10.326-15.14-23.793-27.965-39.464-37.54h-134.23c-15.671 9.574-29.138 22.4-39.464 37.54-4.278 6.272-11.295 10.12-18.887 10.12h-30.3v124.858h24.222c11.044 0 21.321 5.367 27.895 14.24 23.486 31.699 61.168 52.246 103.649 52.246s80.162-20.548 103.649-52.246c6.575-8.873 16.851-14.24 27.895-14.24h24.222v-124.858z" fill="#d3ced5"/><path d="m381.466 281.321c-3.416 0-6.715-.779-9.7-2.207v82.843c0 13.378-10.845 24.222-24.222 24.222-11.044 0-21.321 5.367-27.895 14.24-23.486 31.699-61.168 52.246-103.649 52.246-12.758 0-25.083-1.854-36.721-5.306 21.437 15.9 47.981 25.306 76.721 25.306 42.481 0 80.162-20.548 103.649-52.246 6.575-8.873 16.851-14.24 27.895-14.24h24.222v-124.858z" fill="#c3bec6"/><path d="m502.6 273.821h-33.612c-.467-8.966-7.909-16.117-16.988-16.117h-30.722c-9.08 0-16.521 7.151-16.987 16.117h-22.823c-5.023 0-9.768-2.559-12.691-6.846-7.137-10.464-15.814-19.979-25.589-28.125 5.289-3.03 8.86-8.73 8.86-15.25v-21.621c0-9.684-7.878-17.562-17.562-17.562h-11.054v-13.96c0-7.501-6.103-13.604-13.604-13.604h-29.133v-43.432h9.133c7.502 0 13.604-6.103 13.604-13.604v-14.181h54.524c14.833 0 26.901-12.068 26.901-26.901s-12.068-26.901-26.901-26.901h-153.678c-4.143 0-7.5 3.358-7.5 7.5s3.357 7.5 7.5 7.5h153.677c6.563 0 11.901 5.339 11.901 11.901s-5.339 11.901-11.901 11.901c-23.873 0-180.553 0-203.91 0-6.563 0-11.901-5.339-11.901-11.901s5.339-11.901 11.901-11.901h15.233c4.143 0 7.5-3.358 7.5-7.5s-3.357-7.5-7.5-7.5h-15.233c-14.833 0-26.901 12.068-26.901 26.901s12.068 26.901 26.901 26.901h54.524v14.181c0 7.501 6.103 13.604 13.604 13.604h9.133v43.432h-29.133c-7.502 0-13.604 6.103-13.604 13.604v13.96h-11.054c-9.684 0-17.562 7.878-17.562 17.562v21.621c0 6.52 3.571 12.221 8.86 15.25-9.775 8.146-18.453 17.661-25.589 28.125-2.924 4.287-7.668 6.846-12.691 6.846h-22.823c-.467-8.966-7.908-16.117-16.987-16.117h-30.722c-9.08 0-16.522 7.151-16.988 16.117h-33.613c-5.184 0-9.4 4.217-9.4 9.4v121.057c0 5.184 4.217 9.4 9.4 9.4h33.612c.467 8.966 7.909 16.117 16.988 16.117h30.722c9.08 0 16.521-7.151 16.987-16.117h16.746c8.494 0 16.67 4.189 21.869 11.205 25.736 34.736 66.246 55.283 109.676 55.283 9.006 0 18.011-.884 26.765-2.626 4.063-.809 6.7-4.757 5.892-8.82-.809-4.062-4.759-6.701-8.819-5.891-7.793 1.551-15.813 2.337-23.837 2.337-38.297 0-74.791-18.397-97.623-49.212-8.016-10.817-20.696-17.275-33.921-17.275h-16.722v-109.858h22.799c9.986 0 19.363-5.007 25.084-13.394 9.286-13.615 21.5-25.427 35.412-34.266h129.941c13.912 8.839 26.126 20.65 35.412 34.266 5.721 8.387 15.098 13.394 25.084 13.394h22.799v109.858h-16.722c-13.225 0-25.905 6.458-33.922 17.275-10.851 14.645-25.09 26.859-41.179 35.323-3.665 1.929-5.074 6.464-3.146 10.129 1.929 3.667 6.466 5.073 10.13 3.146 18.071-9.507 34.063-23.224 46.246-39.668 5.2-7.017 13.376-11.206 21.87-11.206h16.746c.467 8.966 7.908 16.117 16.987 16.117h30.722c9.08 0 16.522-7.151 16.988-16.117h33.614c5.184 0 9.4-4.217 9.4-9.4v-121.057c0-5.183-4.217-9.4-9.4-9.4zm-487.6 15h27.989v109.858h-27.989zm42.989 123.963c0-19.621 0-118.063 0-138.069 0-1.109.902-2.011 2.012-2.011h7.86v142.091h-7.86c-1.109 0-2.012-.902-2.012-2.011zm34.744 0c0 1.109-.902 2.011-2.011 2.011h-7.861v-142.091h7.861c1.108 0 2.011.902 2.011 2.011zm130.836-327.148h64.861v12.785c-20.658 0-45.993 0-64.861 0zm22.738 27.785h19.387v43.432h-19.387zm-42.738 58.432h104.861v12.564h-104.861zm-26.053 54.309c-1.412 0-2.562-1.149-2.562-2.562v-21.621c0-1.413 1.149-2.562 2.562-2.562h156.969c1.412 0 2.562 1.149 2.562 2.562v21.621c0 1.413-1.149 2.562-2.562 2.562-35.468 0-121.424 0-156.969 0zm276.495 186.622c0 1.109-.902 2.011-2.012 2.011h-7.86v-76.094c0-4.142-3.357-7.5-7.5-7.5s-7.5 3.358-7.5 7.5v76.094h-7.861c-1.108 0-2.011-.902-2.011-2.011v-138.069c0-1.109.902-2.011 2.011-2.011h7.861v30.997c0 4.142 3.357 7.5 7.5 7.5s7.5-3.358 7.5-7.5v-30.997h7.86c1.109 0 2.012.902 2.012 2.011zm42.989-14.105h-27.989v-109.858h27.989z"/></svg>